<svg version="1.0" width="1500" height="1500" viewBox="0 0 1125 1125" xmlns="http://www.w3.org/2000/svg"><g fill="#fff"><path d="M540.5 12.179c-11.3.9-22.6 2.7-29.6 4.7-2.8.8-5.9 1.4-6.9 1.4-2.8 0-19.9 5.4-36.6 11.6-4.6 1.6-27 12.6-32.6 15.9-23.9 14.1-48.3 35-66.7 57-10.4 12.5-14.7 18.5-23.7 33.2-4.5 7.4-15.9 30.7-15.9 32.6 0 .7-.4 1.7-.9 2.2-1.8 1.9-9.9 28-12.5 40.5-5.5 26.3-5.1 12.2-5.1 193.5 0 156.1.1 167.7 1.8 177 3.7 20.9 8.1 38.2 12.6 49.7 7.4 19.1 11.4 27.5 19.2 40.8 6.4 11 10.4 16.9 17.1 26 5.4 7.1 23.5 27.7 24.8 28.2.5.2 3.5 2.8 6.7 5.9 11.2 10.7 27.1 22.3 45.8 33.6 14.3 8.6 40.2 18.9 62 24.6 34.4 9.2 76.2 10.3 111.5 3.2 12.5-2.6 28.2-6.8 33.7-9.2 1.7-.7 3.5-1.3 4-1.3 2.4 0 29.8-12.7 40.3-18.7s31.5-21 37.1-26.5c.8-.8 4.8-4.4 8.9-8.1 23.1-20.9 44.6-50.9 58.2-81.7 2.2-4.9 3.5-8.1 6.9-16.8 3.1-7.8 6.8-21.3 9.3-33.2 5.5-26.3 5.1-11 5.1-192.5 0-181.2.3-169.9-5.2-195-2.7-12.5-9.2-33.7-11.9-38.7-.8-1.4-1.4-3.1-1.4-3.7 0-1.2-11.9-25.8-14.3-29.6-1.6-2.6-5.9-9.6-7.2-11.7-5.9-10-19.2-26.5-31.4-39.1-12-12.4-32.9-29.7-43.9-36.2-2.1-1.3-9.1-5.6-11.7-7.2-4.2-2.6-28.5-14.3-29.8-14.3-.7 0-1.7-.4-2.2-.9-1.9-1.8-27.8-9.7-40.5-12.4-22.3-4.7-52.1-6.6-75-4.8m42 56.6c17.4 1.8 29.5 4.5 45.8 10.1 9.1 3.1 31 13.8 40.2 19.6 21.6 13.6 45.2 36.9 58.6 57.8 4.6 7.3 5 7.9 11.8 21.5 11.1 22.4 17.1 43.6 19.6 69 1.4 15.2 1.4 302.2 0 316.5-1.7 15.9-5.4 34.4-8.6 41.8-.8 1.8-1.4 3.9-1.4 4.7 0 2-3.4 9.9-10.4 24.3-2.5 5.1-5.9 11.3-7.5 13.8-1.7 2.5-3.1 4.7-3.1 5s-3.3 4.9-7.4 10.3c-28.3 37.3-65.7 62-111.1 73.4-16.9 4.3-24.8 5.1-46.5 5.1s-29.5-.8-46.5-5.1c-45.1-11.2-82.9-36.2-111.1-73.4-4.1-5.4-7.4-10-7.4-10.3s-1.4-2.5-3.1-5c-5.1-7.7-17.9-34.8-17.9-38.1 0-.8-.6-2.9-1.4-4.7-3.2-7.4-6.4-22.7-8.2-38.8-1.7-16-2.1-303-.4-320 2.7-26.5 9.3-49 21.3-72.5 15-29.4 40.8-57.7 68.7-75.3 7.7-4.9 32.2-17.2 34.2-17.2.8 0 1.8-.4 2.4-.8.5-.5 4.1-1.9 7.9-3.1 3.9-1.2 8.4-2.6 10-3.1 10.7-3.3 34.9-6.6 50-6.8 4.4-.1 14.1.5 21.5 1.3"/><path d="M551 182.479c-5.3 2.7-11.2 8.3-13.8 13.3-2.2 4-2.2 4.3-2.2 68.5s0 64.5 2.2 68.5c2.7 5.1 8.6 10.7 14 13.4 5.6 2.8 16.3 2.9 22.4.2 4.9-2.2 11.7-8.8 14.5-14.1 1.8-3.3 1.9-7.1 1.9-68 0-64.2 0-64.5-2.2-68.5-2.7-5.1-8.6-10.7-14-13.4-5.8-2.9-17.1-2.9-22.8.1m-163.4 715c-4.3 2.2-7.3 4.7-10 8.3-3.8 5-7.1 13.5-7.1 18.1 0 4 3.3 12.9 6.3 16.7 1.7 2.2 40.2 41 85.6 86.4 64.1 63.9 83.6 82.9 87.1 84.4 6.4 2.9 17.8 2.8 24.5-.2 4.2-1.8 19-16.2 89.2-86.3 65.2-65.1 84.7-85.1 86.2-88.6 2.9-6.4 2.9-19.5 0-25.2-3.1-6-10.7-13-16.5-15.1-6.2-2.2-14.5-2.2-20.9 0-4.5 1.6-11.9 8.7-76.7 73.3-39.5 39.3-72.5 71.7-73.4 71.8-1 .3-26.5-24.5-71.8-69.7-38.5-38.5-71-70.7-72.1-71.6-4.7-3.6-10.8-5.5-17.5-5.5-5.6 0-7.8.5-12.9 3.2"/></g></svg>