<svg width="322.47mm" height="201.98mm" version="1.1" viewBox="0 0 322.47 201.98" xmlns="http://www.w3.org/2000/svg">
    <g transform="translate(152.37 -51.431)"><a transform="matrix(.70609 0 0 .70609 -610.79 225.3)">
            <path d="m764.51 39.429c-0.0934-0.24371-0.12843-8.3807-0.0779-18.082l0.0918-17.639 8.9958-0.1974v-70.887h-8.8194v-67.36l9.3485-0.19687 0.1796-74.612h-8.1172v-30.692h31.044v-5.9973h31.044v5.9973h102.63l0.10247-2.9104 0.10245-2.9104 28.398-0.18439v6.0052h38.806v26.81h10.93l0.1823 39.336 9.3485 0.19687v36.317h-59.267v176.04h-79.7l-0.10247-2.9104-0.10245-2.9104-58.714-0.18042-0.10054 3.6179-0.10057 3.6179-27.969 0.0903c-22.187 0.0716-28.004-3e-3 -28.138-0.35279zm38.642-17.729v-11.818h-32.456v23.636h32.456zm11.289 8.2902v-3.5277h4.939v-231.42h27.165v8.114h60.325v-8.114h30.34v152.05h-114.65v79.375h53.975v-20.814h34.219v-10.231h26.81v37.042h15.875v-243.06h38.806v-1.7579l-38.629-0.18241-0.1846-27.316-16.212-0.20165-0.1838 27.517-117.64 0.17846-0.18458-27.543-12.7-0.0395-0.0891 64.061-0.0892 64.061h-35.629v23.989h35.631v121.36h8.114zm96.308-9.3485v-11.818h-31.044v17.639h5.9973v5.9973h25.047zm23.636-5.1152v-16.933h-20.461v33.867h20.461zm-131.23-22.931v-14.111h-23.636v28.223h23.636zm0-31.221v-13.935h-23.636v27.869h23.636zm0-31.573v-14.464h-32.456v10.914l8.6431 0.19811 0.0943 8.9077 0.0942 8.9077h23.624zm41.981 10.231v-3.8806h-22.578v7.761h22.578zm88.815-8.7312-0.0926-12.612h-111.12l-0.191 14.288h25.768v10.936h85.733zm-4e-3 -42.685 0.0904-26.9h-111.48v26.752c0 14.714 0.10633 26.858 0.23627 26.988 0.12996 0.12995 25.173 0.1961 55.65 0.14699l55.414-0.0893 0.0904-26.9zm-130.79-20.02v-16.404h-22.931v19.05h-9.525v13.758h32.456zm40.217-13.587v-3.533l-20.638 0.18704-0.20193 6.8792h20.839zm63.5-22.572v-26.106h-60.325v52.21h60.325zm27.165 22.578v-3.5277h-23.989v7.0557h23.989zm78.669-3.175v-4.586h-56.092v9.1723h56.092zm-209.55-17.462v-14.64h-22.931v29.281h22.931zm39.423 13.98 0.79375-0.0452v-31.75h-20.814v15.816c0 8.699 0.0664 15.882 0.14745 15.963 0.12724 0.12687 17.677 0.14082 19.873 0.0158zm91.017-0.0143c0.34579-0.0242 0.44098-3.4576 0.44098-15.906v-15.875h-23.989v31.702l0.97015 0.11162c0.80941 0.0931 21.203 0.0626 22.578-0.0338zm79.11-10.262v-5.9973h-9.525v-24.342h-46.567v36.335h56.092zm-209.55-35.983v-14.464h-22.931v28.927h22.931zm40.217 3.7042v-7.5848h-20.814v15.169h20.814zm90.665 0v-7.5848h-23.989v15.169h23.989zm69.144-7.2319v-5.9973h-46.567v11.994h46.567zm-200.02-23.46v-9.3485h-31.044v18.697h31.044zm53.269-4e-3v-9.352l-34.044 0.18317-0.0945 8.813c-0.052 4.8472-0.0172 9.0144 0.0771 9.2604 0.1353 0.35266 3.7573 0.44733 17.116 0.44733l16.944 1.4e-4v-9.352zm35.806 4e-3v-9.1723l-32.631-0.18343v18.711l32.631-0.18343zm28.752 0v-9.3485h-25.4v18.697h25.4zm13.053 0v-9.3485h-9.8777v18.697h9.8777zm58.208 0v-9.3485h-35.631v18.697h35.631z" fill="#fff"/></a>
        <g stroke-width=".77806">
            <rect x="-97.766" y="77.108" width="19.452" height="19.452" rx="3.8903" fill="#cc2825" />
            <rect x="112.31" y="77.108" width="19.452" height="19.452" rx="3.8903" fill="#32a848" />
            <rect x="-29.997" y="82.817" width="14.697" height="10.711" fill="#e0d009" />
            <rect x="31.781" y="82.817" width="16.938" height="10.711" fill="#2b99e0" />
        </g>
        <text x="-127.94281" y="90.894753" fill="#fff" font-family="monospace" font-size="14.111px" stroke-width=".26458" style="line-height:1.25" xml:space="preserve">
            <tspan x="-127.94281" y="90.894753" font-family="monospace" font-size="14.111px" stroke-width=".26458" text-align="center" text-anchor="middle">closed</tspan></text>
        <text x="153.50584" y="90.658646" fill="#fff" font-family="monospace" font-size="14.111px" stroke-width=".26458" style="line-height:1.25" xml:space="preserve">
            <tspan x="153.50584" y="90.658646" font-family="monospace" font-size="14.111px" stroke-width=".26458" text-align="center" text-anchor="middle">open</tspan></text>
    </g>
</svg>